# Blender 5.2.0 LTS
# www.blender.org
mtllib Cube.mtl
o Plane
v -1.000000 0.000000 1.000000
v 1.000000 0.000000 1.000000
v -1.000000 0.000000 -1.000000
v 1.000000 0.000000 -1.000000
v -0.721867 2.000000 0.721867
v 0.721867 2.000000 0.721867
v -0.721867 2.000000 -0.721867
v 0.721867 2.000000 -0.721867
v -1.000000 2.000000 -1.000000
v -1.000000 2.000000 1.000000
v 1.000000 2.000000 1.000000
v 1.000000 2.000000 -1.000000
v -0.721867 1.000000 0.721867
v 0.721867 1.000000 0.721867
v -0.721867 1.000000 -0.721867
v 0.721867 1.000000 -0.721867
vn -0.0000 -1.0000 -0.0000
vn -1.0000 -0.0000 -0.0000
vn 1.0000 -0.0000 -0.0000
vn -0.0000 -0.0000 -1.0000
vn -0.0000 -0.0000 1.0000
vn -0.0000 1.0000 -0.0000
vt 0.000000 0.000000
vt 0.333333 0.000000
vt 0.333333 0.333333
vt 0.000000 0.333333
vt 0.240622 0.907289
vt 0.240622 0.666667
vt 0.407289 0.666667
vt 0.407289 0.907289
vt 0.666667 0.000000
vt 0.666667 0.333333
vt 0.333333 0.333333
vt 0.333333 -0.000000
vt 0.666667 0.666667
vt 0.333333 0.666667
vt 0.333333 0.333333
vt 1.000000 -0.000000
vt 1.000000 0.333333
vt 0.666667 0.333333
vt 0.666667 -0.000000
vt 1.000000 0.666667
vt 0.046356 0.620311
vt 0.286978 0.620311
vt 0.333333 0.666667
vt 0.000000 0.666667
vt 0.046356 0.379689
vt 0.000000 0.333333
vt 0.286978 0.379689
vt 0.333333 0.333333
vt 0.000000 0.907289
vt 0.000000 0.666667
vt 0.240622 0.666667
vt 0.240622 0.907289
vt 0.407289 0.907289
vt 0.407289 0.666667
vt 0.573956 0.666667
vt 0.573956 0.907289
vt 0.740622 0.666667
vt 0.740622 0.907289
vt 0.907289 0.666667
vt 0.907289 0.907289
s 0
f 1/1/1 3/2/1 4/3/1 2/4/1
f 6/5/2 8/6/2 16/7/2 14/8/2
f 2/9/3 4/10/3 12/11/3 11/12/3
f 3/10/2 1/13/2 10/14/2 9/15/2
f 4/16/4 3/17/4 9/18/4 12/19/4
f 1/17/5 2/20/5 11/13/5 10/18/5
f 5/21/6 7/22/6 9/23/6 10/24/6
f 6/25/6 5/21/6 10/24/6 11/26/6
f 8/27/6 6/25/6 11/26/6 12/28/6
f 7/22/6 8/27/6 12/28/6 9/23/6
f 13/29/6 14/30/6 16/31/6 15/32/6
f 7/33/3 5/34/3 13/35/3 15/36/3
f 8/36/5 7/35/5 15/37/5 16/38/5
f 5/38/4 6/37/4 14/39/4 13/40/4
